<svg width="200" height="158" viewBox="0 0 200 158" fill="none" xmlns="http://www.w3.org/2000/svg">
<g clip-path="url(#clip0_129_89)">
<path d="M37.474 118.33C37.474 118.33 29.0317 120.155 19.6757 117.755C10.3196 115.355 7.92432 124.716 7.92432 124.716C7.92432 124.716 9.21987 112.871 20.4458 112.512C21.5325 112.476 22.6127 112.642 23.6733 112.871C25.256 113.214 29.3678 112.757 33.8256 101.431" fill="#8B74A4"/>
<path d="M35.3723 79.7816C35.3723 79.7816 27.3673 76.5298 20.9875 69.2752C14.6076 62.0207 7.35645 68.4035 7.35645 68.4035C7.35645 68.4035 15.0971 59.3468 24.5739 65.377C25.4909 65.9614 26.2904 66.7058 27.041 67.4926C28.1571 68.668 31.8088 70.6073 41.8697 63.7609" fill="#8B74A4"/>
<path d="M55.3406 46.7478C55.3406 46.7478 50.5565 39.5521 49.3719 29.9632C48.1841 20.3743 38.5996 21.5595 38.5996 21.5595C38.5996 21.5595 50.0931 18.4383 54.528 28.765C54.9588 29.7641 55.197 30.8317 55.3732 31.9025C55.6343 33.5023 57.5597 37.1622 69.7255 37.1786" fill="#8B74A4"/>
<path d="M90.4414 30.7074C90.4414 30.7074 90.5426 22.0654 94.9611 13.4755C99.3797 4.88241 90.7906 0.461792 90.7906 0.461792C90.7906 0.461792 102.046 4.36003 99.8953 15.392C99.6865 16.4596 99.2851 17.475 98.825 18.461C98.1397 19.9301 97.6697 24.0406 107.714 30.9066" fill="#8B74A4"/>
<path d="M128.473 37.2339C128.473 37.2339 133.42 30.1491 141.911 25.5424C150.402 20.9357 145.795 12.4406 145.795 12.4406C145.795 12.4406 152.899 22.0033 144.91 29.9075C144.137 30.6715 143.233 31.2853 142.299 31.8403C140.906 32.6663 138.204 35.7973 142.636 47.1329" fill="#8B74A4"/>
<path d="M156.221 64.0613C156.221 64.0613 164.298 60.9988 173.905 61.975C183.512 62.9512 184.488 53.3395 184.488 53.3395C184.488 53.3395 184.971 65.2464 173.924 67.2739C172.854 67.4698 171.764 67.4698 170.677 67.4012C169.059 67.3 165.064 68.3644 162.343 80.2256" fill="#8B74A4"/>
<path d="M164.043 101.865C164.043 101.865 172.443 103.886 179.831 110.109C187.219 116.332 193.439 108.94 193.439 108.94C193.439 108.94 187.134 119.051 176.865 114.5C175.869 114.059 174.969 113.442 174.11 112.773C172.831 111.777 168.931 110.406 160.003 118.672" fill="#8B74A4"/>
<path d="M98.5577 69.2686L98.016 70.7214L98.0128 70.7279L96.6095 74.4695H96.355L97.9801 70.7867L97.9834 70.7769L98.0062 70.7279V70.7214L98.5577 69.2686Z" fill="#8B74A4"/>
<path d="M98.5256 58.4227L98.5121 58.4566L98.502 58.4227H98.5256Z" fill="#8B74A4"/>
<path d="M108.256 87.1209L108.155 87.3886L101.89 104.105L99.0342 95.3189L95.9634 87.1241V87.1209L102.108 70.728V70.7215L102.369 70.0293L102.382 69.9967L102.624 70.7215V70.728L102.673 70.8717L106.719 83.0202L107.118 84.078L108.256 87.1209Z" fill="#8B74A4"/>
<path d="M98.5121 58.4566L98.502 58.4227H98.5256L98.5121 58.4566Z" fill="#8B74A4"/>
<path d="M98.0059 70.7214L98.5574 69.2686L98.0156 70.7214H98.0059Z" fill="#8B74A4"/>
<path d="M100.444 64.244L100.457 64.2799L98.6587 69.0107L100.444 64.244Z" fill="#8B74A4"/>
<path d="M102.382 69.9967L102.624 70.7215H102.108L102.369 70.0293L102.382 69.9967Z" fill="#8B74A4"/>
<path d="M114.917 70.7215H114.894L110.795 58.4227H110.818L114.675 69.9967L114.917 70.7215Z" fill="#8B74A4"/>
<path d="M108.256 87.1209L108.155 87.3886L102.611 70.7541L102.601 70.728V70.7215L102.369 70.0293L102.382 69.9967L102.624 70.7215V70.728L102.673 70.8717L108.256 87.1209Z" fill="#8B74A4"/>
<path d="M167.998 124.014L160.708 136.312C160.447 136.28 136.752 136.312 136.752 136.312L132.757 124.014H167.998Z" fill="#8B74A4"/>
<path d="M98.502 58.4227H98.5256L98.5121 58.4566L98.502 58.4227Z" fill="#8B74A4"/>
<path d="M114.2 70.2215H102.984L102.856 69.8386L102.425 68.5433L101.918 69.811L101.905 69.8436L101.905 69.8436L101.901 69.8528L101.762 70.2215H98.7357L99.0244 69.4472L99.124 69.1932L99.124 69.1932L99.1259 69.1883L100.924 64.4575L100.924 64.4573L103.024 58.9227H110.435L114.2 70.2215Z" fill="#8B74A4" stroke="#8B74A4"/>
<path d="M99.3363 73.3393H97.1221L98.3319 70.5978H100.62L99.3363 73.3393Z" fill="#8B74A4" stroke="#8B74A4"/>
<path d="M159.576 93.2457C159.576 104.506 156.335 115.035 150.706 124.014H136.719C143.794 115.669 148.037 104.993 148.037 93.3632C148.037 79.1807 141.725 66.4217 131.674 57.5706C122.905 49.846 111.291 45.0956 98.5249 44.9617C85.7587 45.0923 74.1444 49.846 65.3758 57.5706C55.3247 66.4217 49.0133 79.1807 49.0133 93.3632C49.0133 104.993 53.2557 115.669 60.3306 124.014H46.3439C40.7179 115.035 37.4741 104.506 37.4741 93.2457C37.4741 68.6842 52.8869 47.5997 74.8721 38.5496C82.1429 35.5524 90.1316 33.8808 98.5249 33.8253C106.915 33.8808 114.907 35.5524 122.178 38.5496C144.163 47.5997 159.576 68.6842 159.576 93.2457Z" fill="#8B74A4"/>
<path d="M124.452 136.312H89.8218L94.4296 124.014H120.357L124.452 136.312Z" fill="#8B74A4"/>
<path d="M82.2965 156.378L82.1366 156.809H54.2676L58.8754 144.51H78.3446L82.1986 156.084L82.2965 156.378Z" fill="#8B74A4"/>
<path d="M108.724 87.2975L108.788 87.1289L108.729 86.9583L103.321 71.2214H114.533L142.882 156.309H131.643L120.831 123.856L108.685 87.3991L108.724 87.2975Z" fill="#8B74A4" stroke="#8B74A4"/>
<path d="M107.687 87.2118L107.687 87.2131L101.421 103.929L101.421 103.929L93.9613 123.838L94.3756 123.994L93.9613 123.838L89.3535 136.137L89.3534 136.137L81.8282 156.203L81.8276 156.204L81.7887 156.309H69.0169L73.6302 144.695L73.6303 144.695L73.6336 144.686L95.4034 86.7515L95.4034 86.7515L95.4057 86.7453L101.004 71.2247H104.895L107.74 87.0733L107.687 87.2118Z" fill="#8B74A4" stroke="#8B74A4"/>
<path d="M101.955 58.9227L100.467 62.8439L100.451 62.7996L99.9755 64.0686L98.1933 68.8281L98.1905 68.8353L98.0921 69.086L98.0901 69.0911L97.5386 70.544L97.5319 70.5617L97.5301 70.5656L97.518 70.5915L97.5131 70.6063L95.8974 74.2676L95.5876 74.9695H95.8875L95.6485 75.6062L95.6166 75.6912V75.6979L89.8625 91.0427L89.8625 91.0427L77.5694 123.838L77.5694 123.838L72.9616 136.137L72.9615 136.137L69.8875 144.335L70.3557 144.51L69.8875 144.335L65.398 156.309H54.173L61.6049 136.488L61.8582 135.812H61.1367H36.4023L29.7437 124.514H65.7445H66.0911L66.2127 124.189L90.6772 58.9227H98.13L98.4443 59.971L98.8635 58.9227H101.955Z" fill="#8B74A4" stroke="#8B74A4"/>
</g>
<defs>
<clipPath id="clip0_129_89">
<rect width="186" height="156" fill="white" transform="translate(7 1)"/>
</clipPath>
</defs>
</svg>
